# MagicaVoxel @ Ephtracy

# group
o Frying_Pan

# material
mtllib Boat_Booth-12-Frying_Pan.mtl
usemtl palette

# normals
vn 0 1 0
vn 0 -1 0
vn 0 0 1
vn 0 0 -1
vn 1 0 0
vn -1 0 0

# texcoords
vt 0.287109 0.5
vt 0.736328 0.5
vt 0.802734 0.5
vt 0.818359 0.5
vt 0.822266 0.5
vt 0.830078 0.5
vt 0.923828 0.5

# verts
v 0.82 0.66 0.06
v 0.82 0.66 0.04
v 0.8 0.66 0.08
v 0.8 0.66 0.06
v 0.8 0.66 0.04
v 0.78 0.66 0.08
v 0.78 0.66 0.06
v 0.86 0.64 0.12
v 0.86 0.64 0.02
v 0.84 0.64 0.14
v 0.84 0.64 0.12
v 0.84 0.64 0.02
v 0.84 0.64 0
v 0.82 0.64 0.1
v 0.82 0.64 0.08
v 0.82 0.64 0.06
v 0.8 0.64 0.1
v 0.8 0.64 0.08
v 0.8 0.64 0.06
v 0.8 0.64 0.04
v 0.78 0.64 0.1
v 0.78 0.64 0.08
v 0.78 0.64 0.06
v 0.78 0.64 0.04
v 0.76 0.64 0.1
v 0.76 0.64 0.06
v 0.76 0.64 0.04
v 0.74 0.64 0.14
v 0.74 0.64 0.12
v 0.74 0.64 0.02
v 0.74 0.64 0
v 0.72 0.64 0.12
v 0.72 0.64 0.08
v 0.72 0.64 0.06
v 0.72 0.64 0.02
v 0.62 0.64 0.08
v 0.62 0.64 0.06
v 0.84 0.62 0.12
v 0.84 0.62 0.02
v 0.82 0.62 0.1
v 0.82 0.62 0.08
v 0.82 0.62 0.06
v 0.82 0.62 0.04
v 0.8 0.62 0.1
v 0.8 0.62 0.04
v 0.78 0.62 0.1
v 0.78 0.62 0.04
v 0.76 0.62 0.1
v 0.76 0.62 0.06
v 0.76 0.62 0.04
v 0.74 0.62 0.12
v 0.74 0.62 0.02
v 0.86 0.62 0.12
v 0.86 0.62 0.02
v 0.84 0.62 0.14
v 0.84 0.62 0.12
v 0.84 0.62 0.02
v 0.84 0.62 0
v 0.74 0.62 0.14
v 0.74 0.62 0.12
v 0.74 0.62 0.02
v 0.74 0.62 0
v 0.72 0.62 0.12
v 0.72 0.62 0.08
v 0.72 0.62 0.06
v 0.72 0.62 0.02
v 0.62 0.62 0.08
v 0.62 0.62 0.06
v 0.84 0.6 0.12
v 0.84 0.6 0.02
v 0.82 0.6 0.1
v 0.82 0.6 0.04
v 0.76 0.6 0.1
v 0.76 0.6 0.04
v 0.74 0.6 0.12
v 0.74 0.6 0.02
v 0.84 0.64 0.14
v 0.74 0.64 0.14
v 0.84 0.62 0.14
v 0.74 0.62 0.14
v 0.86 0.64 0.12
v 0.84 0.64 0.12
v 0.74 0.64 0.12
v 0.72 0.64 0.12
v 0.86 0.62 0.12
v 0.84 0.62 0.12
v 0.74 0.62 0.12
v 0.72 0.62 0.12
v 0.84 0.6 0.12
v 0.74 0.6 0.12
v 0.82 0.64 0.1
v 0.8 0.64 0.1
v 0.78 0.64 0.1
v 0.76 0.64 0.1
v 0.82 0.62 0.1
v 0.8 0.62 0.1
v 0.78 0.62 0.1
v 0.76 0.62 0.1
v 0.8 0.66 0.08
v 0.78 0.66 0.08
v 0.8 0.64 0.08
v 0.78 0.64 0.08
v 0.72 0.64 0.08
v 0.62 0.64 0.08
v 0.72 0.62 0.08
v 0.62 0.62 0.08
v 0.82 0.66 0.06
v 0.8 0.66 0.06
v 0.82 0.64 0.06
v 0.8 0.64 0.06
v 0.84 0.64 0.02
v 0.74 0.64 0.02
v 0.84 0.62 0.02
v 0.74 0.62 0.02
v 0.84 0.64 0.12
v 0.74 0.64 0.12
v 0.84 0.62 0.12
v 0.74 0.62 0.12
v 0.8 0.66 0.06
v 0.78 0.66 0.06
v 0.8 0.64 0.06
v 0.78 0.64 0.06
v 0.72 0.64 0.06
v 0.62 0.64 0.06
v 0.72 0.62 0.06
v 0.62 0.62 0.06
v 0.82 0.66 0.04
v 0.8 0.66 0.04
v 0.82 0.64 0.04
v 0.8 0.64 0.04
v 0.78 0.64 0.04
v 0.76 0.64 0.04
v 0.82 0.62 0.04
v 0.8 0.62 0.04
v 0.78 0.62 0.04
v 0.76 0.62 0.04
v 0.86 0.64 0.02
v 0.84 0.64 0.02
v 0.74 0.64 0.02
v 0.72 0.64 0.02
v 0.86 0.62 0.02
v 0.84 0.62 0.02
v 0.74 0.62 0.02
v 0.72 0.62 0.02
v 0.84 0.6 0.02
v 0.74 0.6 0.02
v 0.84 0.64 0
v 0.74 0.64 0
v 0.84 0.62 0
v 0.74 0.62 0
v 0.86 0.64 0.12
v 0.86 0.62 0.12
v 0.86 0.64 0.02
v 0.86 0.62 0.02
v 0.84 0.64 0.14
v 0.84 0.62 0.14
v 0.84 0.64 0.12
v 0.84 0.62 0.12
v 0.84 0.6 0.12
v 0.84 0.64 0.02
v 0.84 0.62 0.02
v 0.84 0.6 0.02
v 0.84 0.64 0
v 0.84 0.62 0
v 0.82 0.64 0.1
v 0.82 0.62 0.1
v 0.82 0.64 0.08
v 0.82 0.62 0.08
v 0.82 0.66 0.06
v 0.82 0.64 0.06
v 0.82 0.62 0.06
v 0.82 0.66 0.04
v 0.82 0.64 0.04
v 0.82 0.62 0.04
v 0.8 0.66 0.08
v 0.8 0.64 0.08
v 0.8 0.66 0.06
v 0.8 0.64 0.06
v 0.74 0.64 0.12
v 0.74 0.62 0.12
v 0.74 0.64 0.02
v 0.74 0.62 0.02
v 0.84 0.64 0.12
v 0.84 0.62 0.12
v 0.84 0.64 0.02
v 0.84 0.62 0.02
v 0.8 0.66 0.06
v 0.8 0.64 0.06
v 0.8 0.66 0.04
v 0.8 0.64 0.04
v 0.78 0.66 0.08
v 0.78 0.64 0.08
v 0.78 0.66 0.06
v 0.78 0.64 0.06
v 0.76 0.64 0.1
v 0.76 0.62 0.1
v 0.76 0.64 0.06
v 0.76 0.62 0.06
v 0.76 0.64 0.04
v 0.76 0.62 0.04
v 0.74 0.64 0.14
v 0.74 0.62 0.14
v 0.74 0.64 0.12
v 0.74 0.62 0.12
v 0.74 0.6 0.12
v 0.74 0.64 0.02
v 0.74 0.62 0.02
v 0.74 0.6 0.02
v 0.74 0.64 0
v 0.74 0.62 0
v 0.72 0.64 0.12
v 0.72 0.62 0.12
v 0.72 0.64 0.08
v 0.72 0.62 0.08
v 0.72 0.64 0.06
v 0.72 0.62 0.06
v 0.72 0.64 0.02
v 0.72 0.62 0.02
v 0.62 0.64 0.08
v 0.62 0.62 0.08
v 0.62 0.64 0.06
v 0.62 0.62 0.06

# faces
f 1/7/1 2/7/1 4/7/1
f 4/7/1 2/7/1 5/7/1
f 3/7/1 4/7/1 6/7/1
f 6/7/1 4/7/1 7/7/1
f 8/6/1 9/6/1 11/6/1
f 11/6/1 9/6/1 12/6/1
f 14/7/1 15/7/1 17/7/1
f 15/4/1 16/4/1 18/4/1
f 17/7/1 15/7/1 18/7/1
f 18/4/1 16/4/1 19/4/1
f 17/5/1 18/5/1 21/5/1
f 21/5/1 18/5/1 22/5/1
f 19/7/1 20/7/1 23/7/1
f 23/7/1 20/7/1 24/7/1
f 21/7/1 22/7/1 25/7/1
f 22/7/1 23/7/1 25/7/1
f 23/5/1 24/5/1 26/5/1
f 25/7/1 23/7/1 26/7/1
f 26/5/1 24/5/1 27/5/1
f 10/6/1 11/6/1 28/6/1
f 28/6/1 11/6/1 29/6/1
f 12/6/1 13/6/1 30/6/1
f 30/6/1 13/6/1 31/6/1
f 29/6/1 30/6/1 32/6/1
f 32/6/1 30/6/1 33/6/1
f 33/6/1 30/6/1 34/6/1
f 34/6/1 30/6/1 35/6/1
f 33/2/1 34/2/1 36/2/1
f 36/2/1 34/2/1 37/2/1
f 38/6/1 39/6/1 40/6/1
f 40/6/1 39/6/1 41/6/1
f 41/6/1 39/6/1 42/6/1
f 42/6/1 39/6/1 43/6/1
f 38/6/1 40/6/1 44/6/1
f 43/6/1 39/6/1 45/6/1
f 38/6/1 44/6/1 46/6/1
f 45/6/1 39/6/1 47/6/1
f 38/6/1 46/6/1 48/6/1
f 47/6/1 39/6/1 50/6/1
f 48/6/1 49/6/1 51/6/1
f 49/6/1 50/6/1 51/6/1
f 38/6/1 48/6/1 51/6/1
f 50/6/1 39/6/1 52/6/1
f 51/6/1 50/6/1 52/6/1
f 56/6/2 54/6/2 53/6/2
f 57/6/2 54/6/2 56/6/2
f 59/6/2 56/6/2 55/6/2
f 60/6/2 56/6/2 59/6/2
f 61/6/2 58/6/2 57/6/2
f 62/6/2 58/6/2 61/6/2
f 63/6/2 61/6/2 60/6/2
f 64/6/2 61/6/2 63/6/2
f 65/6/2 61/6/2 64/6/2
f 66/6/2 61/6/2 65/6/2
f 67/2/2 65/2/2 64/2/2
f 68/2/2 65/2/2 67/2/2
f 71/6/2 70/6/2 69/6/2
f 72/6/2 70/6/2 71/6/2
f 73/6/2 71/6/2 69/6/2
f 73/3/2 72/3/2 71/3/2
f 74/6/2 70/6/2 72/6/2
f 74/3/2 72/3/2 73/3/2
f 75/6/2 73/6/2 69/6/2
f 75/6/2 74/6/2 73/6/2
f 76/6/2 70/6/2 74/6/2
f 76/6/2 74/6/2 75/6/2
f 77/6/3 78/6/3 79/6/3
f 79/6/3 78/6/3 80/6/3
f 81/6/3 82/6/3 85/6/3
f 85/6/3 82/6/3 86/6/3
f 83/6/3 84/6/3 87/6/3
f 87/6/3 84/6/3 88/6/3
f 86/6/3 87/6/3 89/6/3
f 89/6/3 87/6/3 90/6/3
f 91/7/3 92/7/3 95/7/3
f 92/5/3 93/5/3 96/5/3
f 95/7/3 92/7/3 96/7/3
f 93/7/3 94/7/3 97/7/3
f 96/5/3 93/5/3 97/5/3
f 97/7/3 94/7/3 98/7/3
f 99/7/3 100/7/3 101/7/3
f 101/7/3 100/7/3 102/7/3
f 103/2/3 104/2/3 105/2/3
f 105/2/3 104/2/3 106/2/3
f 107/7/3 108/7/3 109/7/3
f 109/7/3 108/7/3 110/7/3
f 111/6/3 112/6/3 113/6/3
f 113/6/3 112/6/3 114/6/3
f 117/6/4 116/6/4 115/6/4
f 118/6/4 116/6/4 117/6/4
f 121/7/4 120/7/4 119/7/4
f 122/7/4 120/7/4 121/7/4
f 125/2/4 124/2/4 123/2/4
f 126/2/4 124/2/4 125/2/4
f 129/7/4 128/7/4 127/7/4
f 130/7/4 128/7/4 129/7/4
f 133/1/4 130/1/4 129/1/4
f 134/7/4 131/7/4 130/7/4
f 134/1/4 130/1/4 133/1/4
f 135/5/4 132/5/4 131/5/4
f 135/7/4 131/7/4 134/7/4
f 136/5/4 132/5/4 135/5/4
f 141/6/4 138/6/4 137/6/4
f 142/6/4 138/6/4 141/6/4
f 143/6/4 140/6/4 139/6/4
f 144/6/4 140/6/4 143/6/4
f 145/6/4 143/6/4 142/6/4
f 146/6/4 143/6/4 145/6/4
f 149/6/4 148/6/4 147/6/4
f 150/6/4 148/6/4 149/6/4
f 151/6/5 152/6/5 153/6/5
f 153/6/5 152/6/5 154/6/5
f 155/6/5 156/6/5 157/6/5
f 157/6/5 156/6/5 158/6/5
f 158/6/5 159/6/5 161/6/5
f 161/6/5 159/6/5 162/6/5
f 160/6/5 161/6/5 163/6/5
f 163/6/5 161/6/5 164/6/5
f 165/7/5 166/7/5 167/7/5
f 167/7/5 166/7/5 168/7/5
f 167/4/5 168/4/5 170/4/5
f 170/4/5 168/4/5 171/4/5
f 169/7/5 170/7/5 172/7/5
f 170/1/5 171/1/5 173/1/5
f 172/7/5 170/7/5 173/7/5
f 173/1/5 171/1/5 174/1/5
f 175/7/5 176/7/5 177/7/5
f 177/7/5 176/7/5 178/7/5
f 179/6/5 180/6/5 181/6/5
f 181/6/5 180/6/5 182/6/5
f 185/6/6 184/6/6 183/6/6
f 186/6/6 184/6/6 185/6/6
f 189/7/6 188/7/6 187/7/6
f 190/7/6 188/7/6 189/7/6
f 193/7/6 192/7/6 191/7/6
f 194/7/6 192/7/6 193/7/6
f 197/7/6 196/7/6 195/7/6
f 198/7/6 196/7/6 197/7/6
f 199/5/6 198/5/6 197/5/6
f 200/5/6 198/5/6 199/5/6
f 203/6/6 202/6/6 201/6/6
f 204/6/6 202/6/6 203/6/6
f 207/6/6 205/6/6 204/6/6
f 208/6/6 205/6/6 207/6/6
f 209/6/6 207/6/6 206/6/6
f 210/6/6 207/6/6 209/6/6
f 213/6/6 212/6/6 211/6/6
f 214/6/6 212/6/6 213/6/6
f 217/6/6 216/6/6 215/6/6
f 218/6/6 216/6/6 217/6/6
f 221/2/6 220/2/6 219/2/6
f 222/2/6 220/2/6 221/2/6
