# MagicaVoxel @ Ephtracy

# group
o Bottle_B

# material
mtllib Boat_Booth-14-Bottle_B.mtl
usemtl palette

# normals
vn -1 0 0
vn 1 0 0
vn 0 0 1
vn 0 0 -1
vn 0 -1 0
vn 0 1 0

# texcoords
vt 0.00585938 0.5
vt 0.818359 0.5
vt 0.833984 0.5

# verts
v 0.36 0.64 -0.2
v 0.36 0.64 -0.26
v 0.36 0.66 -0.22
v 0.36 0.66 -0.24
v 0.36 0.68 -0.22
v 0.36 0.68 -0.24
v 0.36 0.7 -0.2
v 0.36 0.7 -0.22
v 0.36 0.7 -0.24
v 0.36 0.7 -0.26
v 0.36 0.74 -0.22
v 0.36 0.74 -0.24
v 0.38 0.7 -0.2
v 0.38 0.7 -0.22
v 0.38 0.7 -0.24
v 0.38 0.7 -0.26
v 0.38 0.74 -0.2
v 0.38 0.74 -0.22
v 0.38 0.74 -0.24
v 0.38 0.74 -0.26
v 0.38 0.76 -0.22
v 0.38 0.76 -0.24
v 0.4 0.7 -0.2
v 0.4 0.7 -0.22
v 0.4 0.7 -0.24
v 0.4 0.7 -0.26
v 0.4 0.74 -0.2
v 0.4 0.74 -0.22
v 0.4 0.74 -0.24
v 0.4 0.74 -0.26
v 0.4 0.76 -0.22
v 0.4 0.76 -0.24
v 0.42 0.64 -0.2
v 0.42 0.64 -0.26
v 0.42 0.66 -0.22
v 0.42 0.66 -0.24
v 0.42 0.68 -0.22
v 0.42 0.68 -0.24
v 0.42 0.7 -0.2
v 0.42 0.7 -0.22
v 0.42 0.7 -0.24
v 0.42 0.7 -0.26
v 0.42 0.74 -0.22
v 0.42 0.74 -0.24
v 0.36 0.64 -0.2
v 0.36 0.7 -0.2
v 0.38 0.66 -0.2
v 0.38 0.68 -0.2
v 0.38 0.7 -0.2
v 0.38 0.74 -0.2
v 0.4 0.66 -0.2
v 0.4 0.68 -0.2
v 0.4 0.7 -0.2
v 0.4 0.74 -0.2
v 0.42 0.64 -0.2
v 0.42 0.7 -0.2
v 0.36 0.7 -0.22
v 0.36 0.74 -0.22
v 0.38 0.7 -0.22
v 0.38 0.74 -0.22
v 0.38 0.76 -0.22
v 0.4 0.7 -0.22
v 0.4 0.74 -0.22
v 0.4 0.76 -0.22
v 0.42 0.7 -0.22
v 0.42 0.74 -0.22
v 0.36 0.7 -0.24
v 0.36 0.74 -0.24
v 0.38 0.7 -0.24
v 0.38 0.74 -0.24
v 0.38 0.76 -0.24
v 0.4 0.7 -0.24
v 0.4 0.74 -0.24
v 0.4 0.76 -0.24
v 0.42 0.7 -0.24
v 0.42 0.74 -0.24
v 0.36 0.64 -0.26
v 0.36 0.7 -0.26
v 0.38 0.66 -0.26
v 0.38 0.68 -0.26
v 0.38 0.7 -0.26
v 0.38 0.74 -0.26
v 0.4 0.66 -0.26
v 0.4 0.68 -0.26
v 0.4 0.7 -0.26
v 0.4 0.74 -0.26
v 0.42 0.64 -0.26
v 0.42 0.7 -0.26
v 0.36 0.64 -0.2
v 0.42 0.64 -0.2
v 0.36 0.64 -0.26
v 0.42 0.64 -0.26
v 0.36 0.7 -0.2
v 0.38 0.7 -0.2
v 0.4 0.7 -0.2
v 0.42 0.7 -0.2
v 0.36 0.7 -0.22
v 0.38 0.7 -0.22
v 0.4 0.7 -0.22
v 0.42 0.7 -0.22
v 0.36 0.7 -0.24
v 0.38 0.7 -0.24
v 0.4 0.7 -0.24
v 0.42 0.7 -0.24
v 0.36 0.7 -0.26
v 0.38 0.7 -0.26
v 0.4 0.7 -0.26
v 0.42 0.7 -0.26
v 0.38 0.74 -0.2
v 0.4 0.74 -0.2
v 0.36 0.74 -0.22
v 0.38 0.74 -0.22
v 0.4 0.74 -0.22
v 0.42 0.74 -0.22
v 0.36 0.74 -0.24
v 0.38 0.74 -0.24
v 0.4 0.74 -0.24
v 0.42 0.74 -0.24
v 0.38 0.74 -0.26
v 0.4 0.74 -0.26
v 0.38 0.76 -0.22
v 0.4 0.76 -0.22
v 0.38 0.76 -0.24
v 0.4 0.76 -0.24

# faces
f 3/2/1 2/2/1 1/2/1
f 4/2/1 2/2/1 3/2/1
f 5/2/1 3/2/1 1/2/1
f 5/1/1 4/1/1 3/1/1
f 6/2/1 2/2/1 4/2/1
f 6/1/1 4/1/1 5/1/1
f 7/2/1 5/2/1 1/2/1
f 7/2/1 6/2/1 5/2/1
f 8/2/1 6/2/1 7/2/1
f 9/2/1 2/2/1 6/2/1
f 9/2/1 6/2/1 8/2/1
f 10/2/1 2/2/1 9/2/1
f 11/2/1 9/2/1 8/2/1
f 12/2/1 9/2/1 11/2/1
f 17/2/1 14/2/1 13/2/1
f 18/2/1 14/2/1 17/2/1
f 19/2/1 16/2/1 15/2/1
f 20/2/1 16/2/1 19/2/1
f 21/3/1 19/3/1 18/3/1
f 22/3/1 19/3/1 21/3/1
f 23/2/2 24/2/2 27/2/2
f 27/2/2 24/2/2 28/2/2
f 25/2/2 26/2/2 29/2/2
f 29/2/2 26/2/2 30/2/2
f 28/3/2 29/3/2 31/3/2
f 31/3/2 29/3/2 32/3/2
f 33/2/2 34/2/2 35/2/2
f 35/2/2 34/2/2 36/2/2
f 33/2/2 35/2/2 37/2/2
f 35/1/2 36/1/2 37/1/2
f 36/2/2 34/2/2 38/2/2
f 37/1/2 36/1/2 38/1/2
f 33/2/2 37/2/2 39/2/2
f 37/2/2 38/2/2 39/2/2
f 39/2/2 38/2/2 40/2/2
f 38/2/2 34/2/2 41/2/2
f 40/2/2 38/2/2 41/2/2
f 41/2/2 34/2/2 42/2/2
f 40/2/2 41/2/2 43/2/2
f 43/2/2 41/2/2 44/2/2
f 47/2/3 46/2/3 45/2/3
f 48/2/3 46/2/3 47/2/3
f 49/2/3 46/2/3 48/2/3
f 51/2/3 47/2/3 45/2/3
f 51/1/3 48/1/3 47/1/3
f 52/2/3 50/2/3 49/2/3
f 52/1/3 48/1/3 51/1/3
f 52/2/3 49/2/3 48/2/3
f 53/2/3 50/2/3 52/2/3
f 54/2/3 50/2/3 53/2/3
f 55/2/3 51/2/3 45/2/3
f 55/2/3 52/2/3 51/2/3
f 55/2/3 53/2/3 52/2/3
f 56/2/3 53/2/3 55/2/3
f 59/2/3 58/2/3 57/2/3
f 60/2/3 58/2/3 59/2/3
f 63/3/3 61/3/3 60/3/3
f 64/3/3 61/3/3 63/3/3
f 65/2/3 63/2/3 62/2/3
f 66/2/3 63/2/3 65/2/3
f 67/2/4 68/2/4 69/2/4
f 69/2/4 68/2/4 70/2/4
f 70/3/4 71/3/4 73/3/4
f 73/3/4 71/3/4 74/3/4
f 72/2/4 73/2/4 75/2/4
f 75/2/4 73/2/4 76/2/4
f 77/2/4 78/2/4 79/2/4
f 79/2/4 78/2/4 80/2/4
f 80/2/4 78/2/4 81/2/4
f 77/2/4 79/2/4 83/2/4
f 79/1/4 80/1/4 83/1/4
f 81/2/4 82/2/4 84/2/4
f 83/1/4 80/1/4 84/1/4
f 80/2/4 81/2/4 84/2/4
f 84/2/4 82/2/4 85/2/4
f 85/2/4 82/2/4 86/2/4
f 77/2/4 83/2/4 87/2/4
f 83/2/4 84/2/4 87/2/4
f 84/2/4 85/2/4 87/2/4
f 87/2/4 85/2/4 88/2/4
f 91/2/5 90/2/5 89/2/5
f 92/2/5 90/2/5 91/2/5
f 93/2/6 94/2/6 97/2/6
f 97/2/6 94/2/6 98/2/6
f 95/2/6 96/2/6 99/2/6
f 99/2/6 96/2/6 100/2/6
f 101/2/6 102/2/6 105/2/6
f 105/2/6 102/2/6 106/2/6
f 103/2/6 104/2/6 107/2/6
f 107/2/6 104/2/6 108/2/6
f 109/2/6 110/2/6 112/2/6
f 112/2/6 110/2/6 113/2/6
f 111/2/6 112/2/6 115/2/6
f 115/2/6 112/2/6 116/2/6
f 113/2/6 114/2/6 117/2/6
f 117/2/6 114/2/6 118/2/6
f 116/2/6 117/2/6 119/2/6
f 119/2/6 117/2/6 120/2/6
f 121/3/6 122/3/6 123/3/6
f 123/3/6 122/3/6 124/3/6
