# MagicaVoxel @ Ephtracy

# group
o Salad_Bowl-1

# material
mtllib Boat_Booth-10-Salad_Bowl-1.mtl
usemtl palette

# normals
vn -1 0 0
vn 1 0 0
vn 0 0 1
vn 0 0 -1
vn 0 -1 0
vn 0 1 0

# texcoords
vt 0.564453 0.5
vt 0.658203 0.5
vt 0.814453 0.5
vt 0.818359 0.5
vt 0.822266 0.5
vt 0.970703 0.5

# verts
v 0.8 0.62 -0.12
v 0.8 0.62 -0.22
v 0.8 0.66 -0.12
v 0.8 0.66 -0.22
v 0.82 0.6 -0.12
v 0.82 0.6 -0.22
v 0.82 0.62 -0.1
v 0.82 0.62 -0.12
v 0.82 0.62 -0.22
v 0.82 0.62 -0.24
v 0.82 0.66 -0.1
v 0.82 0.66 -0.12
v 0.82 0.66 -0.22
v 0.82 0.66 -0.24
v 0.84 0.58 -0.14
v 0.84 0.58 -0.2
v 0.84 0.6 -0.14
v 0.84 0.6 -0.2
v 0.86 0.64 -0.18
v 0.86 0.64 -0.2
v 0.86 0.64 -0.22
v 0.86 0.66 -0.18
v 0.86 0.66 -0.22
v 0.88 0.64 -0.12
v 0.88 0.64 -0.14
v 0.88 0.66 -0.12
v 0.88 0.66 -0.14
v 0.9 0.64 -0.14
v 0.9 0.64 -0.16
v 0.9 0.64 -0.18
v 0.9 0.66 -0.14
v 0.9 0.66 -0.16
v 0.9 0.66 -0.18
v 0.82 0.64 -0.18
v 0.82 0.64 -0.2
v 0.82 0.66 -0.18
v 0.82 0.66 -0.2
v 0.84 0.64 -0.12
v 0.84 0.64 -0.14
v 0.84 0.64 -0.2
v 0.84 0.64 -0.22
v 0.84 0.66 -0.12
v 0.84 0.66 -0.14
v 0.84 0.66 -0.2
v 0.84 0.66 -0.22
v 0.86 0.64 -0.14
v 0.86 0.64 -0.16
v 0.86 0.64 -0.18
v 0.86 0.66 -0.14
v 0.86 0.66 -0.16
v 0.86 0.66 -0.18
v 0.9 0.58 -0.14
v 0.9 0.58 -0.2
v 0.9 0.6 -0.14
v 0.9 0.6 -0.2
v 0.92 0.6 -0.12
v 0.92 0.6 -0.22
v 0.92 0.62 -0.1
v 0.92 0.62 -0.12
v 0.92 0.62 -0.22
v 0.92 0.62 -0.24
v 0.92 0.66 -0.1
v 0.92 0.66 -0.12
v 0.92 0.66 -0.22
v 0.92 0.66 -0.24
v 0.94 0.62 -0.12
v 0.94 0.62 -0.22
v 0.94 0.66 -0.12
v 0.94 0.66 -0.22
v 0.82 0.62 -0.1
v 0.82 0.66 -0.1
v 0.92 0.62 -0.1
v 0.92 0.66 -0.1
v 0.8 0.62 -0.12
v 0.8 0.66 -0.12
v 0.82 0.6 -0.12
v 0.82 0.62 -0.12
v 0.82 0.66 -0.12
v 0.92 0.6 -0.12
v 0.92 0.62 -0.12
v 0.92 0.66 -0.12
v 0.94 0.62 -0.12
v 0.94 0.66 -0.12
v 0.84 0.58 -0.14
v 0.84 0.6 -0.14
v 0.84 0.64 -0.14
v 0.84 0.66 -0.14
v 0.86 0.64 -0.14
v 0.86 0.66 -0.14
v 0.9 0.58 -0.14
v 0.9 0.6 -0.14
v 0.86 0.64 -0.18
v 0.86 0.66 -0.18
v 0.88 0.64 -0.18
v 0.88 0.66 -0.18
v 0.9 0.64 -0.18
v 0.9 0.66 -0.18
v 0.82 0.64 -0.2
v 0.82 0.66 -0.2
v 0.84 0.64 -0.2
v 0.84 0.66 -0.2
v 0.84 0.64 -0.22
v 0.84 0.66 -0.22
v 0.86 0.64 -0.22
v 0.86 0.66 -0.22
v 0.84 0.64 -0.12
v 0.84 0.66 -0.12
v 0.86 0.64 -0.12
v 0.88 0.64 -0.12
v 0.88 0.66 -0.12
v 0.88 0.64 -0.14
v 0.88 0.66 -0.14
v 0.9 0.64 -0.14
v 0.9 0.66 -0.14
v 0.82 0.64 -0.18
v 0.82 0.66 -0.18
v 0.84 0.64 -0.18
v 0.86 0.64 -0.18
v 0.86 0.66 -0.18
v 0.84 0.58 -0.2
v 0.84 0.6 -0.2
v 0.9 0.58 -0.2
v 0.9 0.6 -0.2
v 0.8 0.62 -0.22
v 0.8 0.66 -0.22
v 0.82 0.6 -0.22
v 0.82 0.62 -0.22
v 0.82 0.66 -0.22
v 0.92 0.6 -0.22
v 0.92 0.62 -0.22
v 0.92 0.66 -0.22
v 0.94 0.62 -0.22
v 0.94 0.66 -0.22
v 0.82 0.62 -0.24
v 0.82 0.66 -0.24
v 0.92 0.62 -0.24
v 0.92 0.66 -0.24
v 0.84 0.58 -0.14
v 0.9 0.58 -0.14
v 0.84 0.58 -0.2
v 0.9 0.58 -0.2
v 0.82 0.6 -0.12
v 0.92 0.6 -0.12
v 0.84 0.6 -0.14
v 0.9 0.6 -0.14
v 0.84 0.6 -0.2
v 0.9 0.6 -0.2
v 0.82 0.6 -0.22
v 0.92 0.6 -0.22
v 0.82 0.62 -0.1
v 0.92 0.62 -0.1
v 0.8 0.62 -0.12
v 0.82 0.62 -0.12
v 0.92 0.62 -0.12
v 0.94 0.62 -0.12
v 0.8 0.62 -0.22
v 0.82 0.62 -0.22
v 0.92 0.62 -0.22
v 0.94 0.62 -0.22
v 0.82 0.62 -0.24
v 0.92 0.62 -0.24
v 0.84 0.64 -0.12
v 0.86 0.64 -0.12
v 0.88 0.64 -0.12
v 0.84 0.64 -0.14
v 0.86 0.64 -0.14
v 0.88 0.64 -0.14
v 0.9 0.64 -0.14
v 0.86 0.64 -0.16
v 0.88 0.64 -0.16
v 0.9 0.64 -0.16
v 0.82 0.64 -0.18
v 0.84 0.64 -0.18
v 0.86 0.64 -0.18
v 0.88 0.64 -0.18
v 0.9 0.64 -0.18
v 0.82 0.64 -0.2
v 0.84 0.64 -0.2
v 0.86 0.64 -0.2
v 0.84 0.64 -0.22
v 0.86 0.64 -0.22
v 0.82 0.66 -0.1
v 0.92 0.66 -0.1
v 0.8 0.66 -0.12
v 0.82 0.66 -0.12
v 0.84 0.66 -0.12
v 0.88 0.66 -0.12
v 0.9 0.66 -0.12
v 0.92 0.66 -0.12
v 0.94 0.66 -0.12
v 0.82 0.66 -0.14
v 0.84 0.66 -0.14
v 0.86 0.66 -0.14
v 0.88 0.66 -0.14
v 0.9 0.66 -0.14
v 0.92 0.66 -0.14
v 0.82 0.66 -0.16
v 0.86 0.66 -0.16
v 0.9 0.66 -0.16
v 0.92 0.66 -0.16
v 0.82 0.66 -0.18
v 0.86 0.66 -0.18
v 0.88 0.66 -0.18
v 0.9 0.66 -0.18
v 0.82 0.66 -0.2
v 0.84 0.66 -0.2
v 0.88 0.66 -0.2
v 0.9 0.66 -0.2
v 0.92 0.66 -0.2
v 0.8 0.66 -0.22
v 0.82 0.66 -0.22
v 0.84 0.66 -0.22
v 0.86 0.66 -0.22
v 0.88 0.66 -0.22
v 0.9 0.66 -0.22
v 0.92 0.66 -0.22
v 0.94 0.66 -0.22
v 0.82 0.66 -0.24
v 0.92 0.66 -0.24

# faces
f 3/1/1 2/1/1 1/1/1
f 4/1/1 2/1/1 3/1/1
f 8/1/1 6/1/1 5/1/1
f 9/1/1 6/1/1 8/1/1
f 11/1/1 8/1/1 7/1/1
f 12/1/1 8/1/1 11/1/1
f 13/1/1 10/1/1 9/1/1
f 14/1/1 10/1/1 13/1/1
f 17/1/1 16/1/1 15/1/1
f 18/1/1 16/1/1 17/1/1
f 22/3/1 20/3/1 19/3/1
f 22/3/1 21/3/1 20/3/1
f 23/3/1 21/3/1 22/3/1
f 26/5/1 25/5/1 24/5/1
f 27/5/1 25/5/1 26/5/1
f 31/3/1 29/3/1 28/3/1
f 32/5/1 30/5/1 29/5/1
f 32/3/1 29/3/1 31/3/1
f 33/5/1 30/5/1 32/5/1
f 34/1/2 35/1/2 36/1/2
f 36/1/2 35/1/2 37/1/2
f 38/1/2 39/1/2 42/1/2
f 42/1/2 39/1/2 43/1/2
f 40/1/2 41/1/2 44/1/2
f 44/1/2 41/1/2 45/1/2
f 46/4/2 47/4/2 49/4/2
f 47/5/2 48/5/2 50/5/2
f 49/4/2 47/4/2 50/4/2
f 50/5/2 48/5/2 51/5/2
f 52/1/2 53/1/2 54/1/2
f 54/1/2 53/1/2 55/1/2
f 56/1/2 57/1/2 59/1/2
f 59/1/2 57/1/2 60/1/2
f 58/1/2 59/1/2 62/1/2
f 62/1/2 59/1/2 63/1/2
f 60/1/2 61/1/2 64/1/2
f 64/1/2 61/1/2 65/1/2
f 66/1/2 67/1/2 68/1/2
f 68/1/2 67/1/2 69/1/2
f 72/1/3 71/1/3 70/1/3
f 73/1/3 71/1/3 72/1/3
f 77/1/3 75/1/3 74/1/3
f 78/1/3 75/1/3 77/1/3
f 79/1/3 77/1/3 76/1/3
f 80/1/3 77/1/3 79/1/3
f 82/1/3 81/1/3 80/1/3
f 83/1/3 81/1/3 82/1/3
f 88/4/3 87/4/3 86/4/3
f 89/4/3 87/4/3 88/4/3
f 90/1/3 85/1/3 84/1/3
f 91/1/3 85/1/3 90/1/3
f 94/3/3 93/3/3 92/3/3
f 95/3/3 93/3/3 94/3/3
f 96/4/3 95/4/3 94/4/3
f 97/4/3 95/4/3 96/4/3
f 100/1/3 99/1/3 98/1/3
f 101/1/3 99/1/3 100/1/3
f 104/1/3 103/1/3 102/1/3
f 105/1/3 103/1/3 104/1/3
f 106/1/4 107/1/4 108/1/4
f 108/1/4 107/1/4 109/1/4
f 109/1/4 107/1/4 110/1/4
f 111/5/4 112/5/4 113/5/4
f 113/5/4 112/5/4 114/5/4
f 115/5/4 116/5/4 117/5/4
f 117/5/4 116/5/4 118/5/4
f 118/5/4 116/5/4 119/5/4
f 120/1/4 121/1/4 122/1/4
f 122/1/4 121/1/4 123/1/4
f 124/1/4 125/1/4 127/1/4
f 127/1/4 125/1/4 128/1/4
f 126/1/4 127/1/4 129/1/4
f 129/1/4 127/1/4 130/1/4
f 130/1/4 131/1/4 132/1/4
f 132/1/4 131/1/4 133/1/4
f 134/1/4 135/1/4 136/1/4
f 136/1/4 135/1/4 137/1/4
f 140/1/5 139/1/5 138/1/5
f 141/1/5 139/1/5 140/1/5
f 144/1/5 143/1/5 142/1/5
f 145/1/5 143/1/5 144/1/5
f 146/1/5 144/1/5 142/1/5
f 147/1/5 143/1/5 145/1/5
f 148/1/5 146/1/5 142/1/5
f 148/1/5 147/1/5 146/1/5
f 149/1/5 143/1/5 147/1/5
f 149/1/5 147/1/5 148/1/5
f 153/1/5 151/1/5 150/1/5
f 154/1/5 151/1/5 153/1/5
f 156/1/5 153/1/5 152/1/5
f 157/1/5 153/1/5 156/1/5
f 158/1/5 155/1/5 154/1/5
f 159/1/5 155/1/5 158/1/5
f 160/1/5 158/1/5 157/1/5
f 161/1/5 158/1/5 160/1/5
f 162/1/6 163/1/6 165/1/6
f 163/4/6 164/4/6 166/4/6
f 165/1/6 163/1/6 166/1/6
f 166/4/6 164/4/6 167/4/6
f 166/5/6 167/5/6 169/5/6
f 167/3/6 168/3/6 170/3/6
f 169/5/6 167/5/6 170/5/6
f 170/3/6 168/3/6 171/3/6
f 169/2/6 170/2/6 174/2/6
f 170/3/6 171/3/6 175/3/6
f 174/2/6 170/2/6 175/2/6
f 175/3/6 171/3/6 176/3/6
f 172/4/6 173/4/6 177/4/6
f 173/5/6 174/5/6 178/5/6
f 177/4/6 173/4/6 178/4/6
f 178/5/6 174/5/6 179/5/6
f 178/3/6 179/3/6 180/3/6
f 180/3/6 179/3/6 181/3/6
f 182/1/6 183/1/6 185/1/6
f 185/1/6 183/1/6 186/1/6
f 186/1/6 183/1/6 187/1/6
f 187/1/6 183/1/6 188/1/6
f 188/1/6 183/1/6 189/1/6
f 184/1/6 185/1/6 191/1/6
f 185/1/6 186/1/6 191/1/6
f 191/1/6 186/1/6 192/1/6
f 187/5/6 188/5/6 194/5/6
f 189/1/6 190/1/6 195/1/6
f 194/5/6 188/5/6 195/5/6
f 188/1/6 189/1/6 195/1/6
f 195/1/6 190/1/6 196/1/6
f 191/4/6 192/4/6 197/4/6
f 192/4/6 193/4/6 197/4/6
f 184/1/6 191/1/6 197/1/6
f 197/4/6 193/4/6 198/4/6
f 195/3/6 196/3/6 199/3/6
f 196/1/6 190/1/6 200/1/6
f 199/3/6 196/3/6 200/3/6
f 197/5/6 198/5/6 201/5/6
f 184/1/6 197/1/6 201/1/6
f 201/5/6 198/5/6 202/5/6
f 199/5/6 200/5/6 204/5/6
f 184/1/6 201/1/6 205/1/6
f 202/3/6 203/3/6 207/3/6
f 203/4/6 204/4/6 207/4/6
f 204/5/6 200/5/6 208/5/6
f 207/4/6 204/4/6 208/4/6
f 200/1/6 190/1/6 209/1/6
f 208/5/6 200/5/6 209/5/6
f 205/1/6 206/1/6 210/1/6
f 184/1/6 205/1/6 210/1/6
f 210/1/6 206/1/6 211/1/6
f 211/1/6 206/1/6 212/1/6
f 202/3/6 207/3/6 213/3/6
f 207/2/6 208/2/6 214/2/6
f 213/3/6 207/3/6 214/3/6
f 208/1/6 209/1/6 215/1/6
f 214/2/6 208/2/6 215/2/6
f 209/1/6 190/1/6 216/1/6
f 215/1/6 209/1/6 216/1/6
f 216/1/6 190/1/6 217/1/6
f 212/1/6 213/1/6 218/1/6
f 214/1/6 215/1/6 218/1/6
f 215/1/6 216/1/6 218/1/6
f 213/1/6 214/1/6 218/1/6
f 211/1/6 212/1/6 218/1/6
f 218/1/6 216/1/6 219/1/6
