# MagicaVoxel @ Ephtracy

# group
o Kitchen_Knife

# material
mtllib Boat_Booth-16-Kitchen_Knife.mtl
usemtl palette

# normals
vn -1 0 0
vn 1 0 0
vn 0 0 1
vn 0 0 -1
vn 0 -1 0
vn 0 1 0

# texcoords
vt 0.271484 0.5
vt 0.287109 0.5

# verts
v 0 0.64 -0.12
v 0 0.64 -0.16
v 0 0.64 -0.26
v 0 0.66 -0.12
v 0 0.66 -0.16
v 0 0.66 -0.26
v 0.02 0.64 -0.24
v 0.02 0.64 -0.26
v 0.02 0.66 -0.24
v 0.02 0.66 -0.26
v 0.04 0.64 -0.12
v 0.04 0.64 -0.16
v 0.04 0.64 -0.24
v 0.04 0.66 -0.12
v 0.04 0.66 -0.16
v 0.04 0.66 -0.24
v 0 0.64 -0.12
v 0 0.66 -0.12
v 0.04 0.64 -0.12
v 0.04 0.66 -0.12
v 0.02 0.64 -0.24
v 0.02 0.66 -0.24
v 0.04 0.64 -0.24
v 0.04 0.66 -0.24
v 0 0.64 -0.26
v 0 0.66 -0.26
v 0.02 0.64 -0.26
v 0.02 0.66 -0.26
v 0 0.64 -0.12
v 0.04 0.64 -0.12
v 0 0.64 -0.16
v 0.04 0.64 -0.16
v 0.02 0.64 -0.24
v 0.04 0.64 -0.24
v 0 0.64 -0.26
v 0.02 0.64 -0.26
v 0 0.66 -0.12
v 0.04 0.66 -0.12
v 0 0.66 -0.16
v 0.04 0.66 -0.16
v 0.02 0.66 -0.24
v 0.04 0.66 -0.24
v 0 0.66 -0.26
v 0.02 0.66 -0.26

# faces
f 4/2/1 2/2/1 1/2/1
f 5/1/1 3/1/1 2/1/1
f 5/2/1 2/2/1 4/2/1
f 6/1/1 3/1/1 5/1/1
f 7/1/2 8/1/2 9/1/2
f 9/1/2 8/1/2 10/1/2
f 11/2/2 12/2/2 14/2/2
f 12/1/2 13/1/2 15/1/2
f 14/2/2 12/2/2 15/2/2
f 15/1/2 13/1/2 16/1/2
f 19/2/3 18/2/3 17/2/3
f 20/2/3 18/2/3 19/2/3
f 21/1/4 22/1/4 23/1/4
f 23/1/4 22/1/4 24/1/4
f 25/1/4 26/1/4 27/1/4
f 27/1/4 26/1/4 28/1/4
f 31/2/5 30/2/5 29/2/5
f 32/2/5 30/2/5 31/2/5
f 33/1/5 32/1/5 31/1/5
f 34/1/5 32/1/5 33/1/5
f 35/1/5 33/1/5 31/1/5
f 36/1/5 33/1/5 35/1/5
f 37/2/6 38/2/6 39/2/6
f 39/2/6 38/2/6 40/2/6
f 39/1/6 40/1/6 41/1/6
f 41/1/6 40/1/6 42/1/6
f 39/1/6 41/1/6 43/1/6
f 43/1/6 41/1/6 44/1/6
