# MagicaVoxel @ Ephtracy

# group
o Gas_Propane

# material
mtllib Boat_Booth-21-Gas_Propane.mtl
usemtl palette

# normals
vn -1 0 0
vn 1 0 0
vn 0 0 1
vn 0 0 -1
vn 0 -1 0
vn 0 1 0

# texcoords
vt 0.130859 0.5
vt 0.720703 0.5
vt 0.724609 0.5
vt 0.833984 0.5

# verts
v 0.9 0.48 0.04
v 0.9 0.48 0.02
v 0.9 0.5 0.04
v 0.9 0.5 0.02
v 0.92 0.3 -0.1
v 0.92 0.3 -0.2
v 0.92 0.46 -0.1
v 0.92 0.46 -0.2
v 0.92 0.5 0.04
v 0.92 0.5 0.02
v 0.92 0.52 0.02
v 0.92 0.52 -0.1
v 0.92 0.54 0.04
v 0.92 0.54 -0.1
v 0.94 0.28 -0.1
v 0.94 0.28 -0.2
v 0.94 0.3 -0.08
v 0.94 0.3 -0.1
v 0.94 0.3 -0.2
v 0.94 0.3 -0.22
v 0.94 0.46 -0.08
v 0.94 0.46 -0.1
v 0.94 0.46 -0.12
v 0.94 0.46 -0.14
v 0.94 0.46 -0.16
v 0.94 0.46 -0.18
v 0.94 0.46 -0.2
v 0.94 0.46 -0.22
v 0.94 0.48 -0.12
v 0.94 0.48 -0.14
v 0.94 0.48 -0.16
v 0.94 0.48 -0.18
v 0.96 0.46 -0.1
v 0.96 0.46 -0.12
v 0.96 0.46 -0.18
v 0.96 0.46 -0.2
v 0.96 0.48 -0.1
v 0.96 0.48 -0.12
v 0.96 0.48 -0.14
v 0.96 0.48 -0.16
v 0.96 0.48 -0.18
v 0.96 0.48 -0.2
v 0.96 0.5 -0.14
v 0.96 0.5 -0.16
v 0.96 0.52 -0.12
v 0.96 0.52 -0.14
v 0.96 0.52 -0.16
v 0.96 0.52 -0.18
v 0.96 0.54 -0.12
v 0.96 0.54 -0.14
v 0.96 0.54 -0.16
v 0.96 0.54 -0.18
v 0.98 0.5 -0.14
v 0.98 0.5 -0.16
v 0.98 0.52 -0.1
v 0.98 0.52 -0.12
v 0.98 0.52 -0.14
v 0.98 0.52 -0.16
v 0.98 0.54 -0.1
v 0.98 0.54 -0.12
v 0.98 0.54 -0.14
v 0.98 0.54 -0.16
v 0.98 0.56 -0.1
v 0.98 0.56 -0.16
v 1 0.5 -0.12
v 1 0.5 -0.14
v 1 0.5 -0.16
v 1 0.5 -0.18
v 1 0.52 -0.12
v 1 0.52 -0.14
v 1 0.52 -0.16
v 1 0.52 -0.18
v 0.94 0.48 0.04
v 0.94 0.48 0.02
v 0.94 0.52 0.02
v 0.94 0.52 -0.08
v 0.94 0.54 0.04
v 0.94 0.54 -0.08
v 0.98 0.5 -0.12
v 0.98 0.5 -0.14
v 0.98 0.5 -0.16
v 0.98 0.5 -0.18
v 0.98 0.52 -0.12
v 0.98 0.52 -0.14
v 0.98 0.52 -0.16
v 0.98 0.52 -0.18
v 1 0.5 -0.14
v 1 0.5 -0.16
v 1 0.52 -0.08
v 1 0.52 -0.12
v 1 0.52 -0.14
v 1 0.52 -0.16
v 1 0.54 -0.08
v 1 0.54 -0.1
v 1 0.54 -0.12
v 1 0.54 -0.14
v 1 0.54 -0.16
v 1 0.56 -0.1
v 1 0.56 -0.16
v 1.02 0.46 -0.1
v 1.02 0.46 -0.12
v 1.02 0.46 -0.18
v 1.02 0.46 -0.2
v 1.02 0.48 -0.1
v 1.02 0.48 -0.12
v 1.02 0.48 -0.14
v 1.02 0.48 -0.16
v 1.02 0.48 -0.18
v 1.02 0.48 -0.2
v 1.02 0.5 -0.14
v 1.02 0.5 -0.16
v 1.02 0.52 -0.12
v 1.02 0.52 -0.14
v 1.02 0.52 -0.16
v 1.02 0.52 -0.18
v 1.02 0.54 -0.12
v 1.02 0.54 -0.14
v 1.02 0.54 -0.16
v 1.02 0.54 -0.18
v 1.04 0.28 -0.1
v 1.04 0.28 -0.2
v 1.04 0.3 -0.08
v 1.04 0.3 -0.1
v 1.04 0.3 -0.2
v 1.04 0.3 -0.22
v 1.04 0.46 -0.08
v 1.04 0.46 -0.1
v 1.04 0.46 -0.12
v 1.04 0.46 -0.14
v 1.04 0.46 -0.16
v 1.04 0.46 -0.18
v 1.04 0.46 -0.2
v 1.04 0.46 -0.22
v 1.04 0.48 -0.12
v 1.04 0.48 -0.14
v 1.04 0.48 -0.16
v 1.04 0.48 -0.18
v 1.06 0.3 -0.1
v 1.06 0.3 -0.2
v 1.06 0.4 -0.12
v 1.06 0.4 -0.18
v 1.06 0.44 -0.12
v 1.06 0.44 -0.18
v 1.06 0.46 -0.1
v 1.06 0.46 -0.2
v 0.9 0.48 0.04
v 0.9 0.5 0.04
v 0.92 0.5 0.04
v 0.92 0.54 0.04
v 0.94 0.48 0.04
v 0.94 0.54 0.04
v 0.94 0.3 -0.08
v 0.94 0.46 -0.08
v 0.94 0.52 -0.08
v 0.94 0.54 -0.08
v 0.96 0.3 -0.08
v 0.96 0.46 -0.08
v 1 0.52 -0.08
v 1 0.54 -0.08
v 1.02 0.3 -0.08
v 1.02 0.46 -0.08
v 1.04 0.3 -0.08
v 1.04 0.46 -0.08
v 0.92 0.3 -0.1
v 0.92 0.46 -0.1
v 0.94 0.28 -0.1
v 0.94 0.3 -0.1
v 0.94 0.46 -0.1
v 0.96 0.3 -0.1
v 0.96 0.46 -0.1
v 0.96 0.48 -0.1
v 0.98 0.46 -0.1
v 0.98 0.48 -0.1
v 0.98 0.54 -0.1
v 0.98 0.56 -0.1
v 1 0.46 -0.1
v 1 0.48 -0.1
v 1 0.54 -0.1
v 1 0.56 -0.1
v 1.02 0.3 -0.1
v 1.02 0.46 -0.1
v 1.02 0.48 -0.1
v 1.04 0.28 -0.1
v 1.04 0.3 -0.1
v 1.04 0.46 -0.1
v 1.06 0.3 -0.1
v 1.06 0.46 -0.1
v 0.94 0.46 -0.12
v 0.94 0.48 -0.12
v 0.96 0.46 -0.12
v 0.96 0.48 -0.12
v 0.96 0.52 -0.12
v 0.96 0.54 -0.12
v 0.98 0.48 -0.12
v 0.98 0.5 -0.12
v 0.98 0.52 -0.12
v 0.98 0.54 -0.12
v 1 0.48 -0.12
v 1 0.5 -0.12
v 1 0.52 -0.12
v 1 0.54 -0.12
v 1.02 0.46 -0.12
v 1.02 0.48 -0.12
v 1.02 0.52 -0.12
v 1.02 0.54 -0.12
v 1.04 0.46 -0.12
v 1.04 0.48 -0.12
v 0.98 0.5 -0.14
v 0.98 0.52 -0.14
v 1 0.5 -0.14
v 1 0.52 -0.14
v 0.96 0.5 -0.16
v 0.96 0.52 -0.16
v 0.96 0.54 -0.16
v 0.98 0.5 -0.16
v 0.98 0.52 -0.16
v 0.98 0.54 -0.16
v 1 0.5 -0.16
v 1 0.52 -0.16
v 1.02 0.5 -0.16
v 1.02 0.52 -0.16
v 0.9 0.48 0.02
v 0.9 0.5 0.02
v 0.92 0.5 0.02
v 0.92 0.52 0.02
v 0.94 0.48 0.02
v 0.94 0.52 0.02
v 0.92 0.52 -0.1
v 0.92 0.54 -0.1
v 0.98 0.52 -0.1
v 0.98 0.54 -0.1
v 0.96 0.5 -0.14
v 0.96 0.52 -0.14
v 0.96 0.54 -0.14
v 0.98 0.5 -0.14
v 0.98 0.52 -0.14
v 0.98 0.54 -0.14
v 1 0.5 -0.14
v 1 0.52 -0.14
v 1.02 0.5 -0.14
v 1.02 0.52 -0.14
v 0.98 0.5 -0.16
v 0.98 0.52 -0.16
v 0.98 0.54 -0.16
v 0.98 0.56 -0.16
v 1 0.5 -0.16
v 1 0.52 -0.16
v 1 0.54 -0.16
v 1 0.56 -0.16
v 0.94 0.46 -0.18
v 0.94 0.48 -0.18
v 0.96 0.46 -0.18
v 0.96 0.48 -0.18
v 0.96 0.52 -0.18
v 0.96 0.54 -0.18
v 0.98 0.48 -0.18
v 0.98 0.5 -0.18
v 0.98 0.52 -0.18
v 0.98 0.54 -0.18
v 1 0.48 -0.18
v 1 0.5 -0.18
v 1 0.52 -0.18
v 1 0.54 -0.18
v 1.02 0.46 -0.18
v 1.02 0.48 -0.18
v 1.02 0.52 -0.18
v 1.02 0.54 -0.18
v 1.04 0.46 -0.18
v 1.04 0.48 -0.18
v 0.92 0.3 -0.2
v 0.92 0.46 -0.2
v 0.94 0.28 -0.2
v 0.94 0.3 -0.2
v 0.94 0.46 -0.2
v 0.96 0.3 -0.2
v 0.96 0.46 -0.2
v 0.96 0.48 -0.2
v 0.98 0.46 -0.2
v 0.98 0.48 -0.2
v 1 0.46 -0.2
v 1 0.48 -0.2
v 1.02 0.3 -0.2
v 1.02 0.46 -0.2
v 1.02 0.48 -0.2
v 1.04 0.28 -0.2
v 1.04 0.3 -0.2
v 1.04 0.46 -0.2
v 1.06 0.3 -0.2
v 1.06 0.46 -0.2
v 0.94 0.3 -0.22
v 0.94 0.46 -0.22
v 0.96 0.3 -0.22
v 0.96 0.46 -0.22
v 1.02 0.3 -0.22
v 1.02 0.46 -0.22
v 1.04 0.3 -0.22
v 1.04 0.46 -0.22
v 0.94 0.28 -0.1
v 1.04 0.28 -0.1
v 0.96 0.28 -0.12
v 1.02 0.28 -0.12
v 0.96 0.28 -0.18
v 1.02 0.28 -0.18
v 0.94 0.28 -0.2
v 1.04 0.28 -0.2
v 0.94 0.3 -0.08
v 0.96 0.3 -0.08
v 1.02 0.3 -0.08
v 1.04 0.3 -0.08
v 0.92 0.3 -0.1
v 0.94 0.3 -0.1
v 0.96 0.3 -0.1
v 1.02 0.3 -0.1
v 1.04 0.3 -0.1
v 1.06 0.3 -0.1
v 0.92 0.3 -0.2
v 0.94 0.3 -0.2
v 0.96 0.3 -0.2
v 1.02 0.3 -0.2
v 1.04 0.3 -0.2
v 1.06 0.3 -0.2
v 0.94 0.3 -0.22
v 0.96 0.3 -0.22
v 1.02 0.3 -0.22
v 1.04 0.3 -0.22
v 0.9 0.48 0.04
v 0.94 0.48 0.04
v 0.9 0.48 0.02
v 0.94 0.48 0.02
v 0.92 0.52 0.02
v 0.94 0.52 0.02
v 0.94 0.52 -0.08
v 1 0.52 -0.08
v 0.92 0.52 -0.1
v 0.98 0.52 -0.1
v 0.98 0.52 -0.12
v 1 0.52 -0.12
v 0.98 0.52 -0.14
v 1 0.52 -0.14
v 1.02 0.52 -0.14
v 0.98 0.52 -0.16
v 1 0.52 -0.16
v 1.02 0.52 -0.16
v 0.98 0.52 -0.18
v 1 0.52 -0.18
v 0.94 0.46 -0.08
v 0.96 0.46 -0.08
v 1.02 0.46 -0.08
v 1.04 0.46 -0.08
v 0.92 0.46 -0.1
v 0.94 0.46 -0.1
v 0.96 0.46 -0.1
v 0.98 0.46 -0.1
v 1 0.46 -0.1
v 1.02 0.46 -0.1
v 1.04 0.46 -0.1
v 1.06 0.46 -0.1
v 0.94 0.46 -0.12
v 0.96 0.46 -0.12
v 1.02 0.46 -0.12
v 1.04 0.46 -0.12
v 0.94 0.46 -0.14
v 1.04 0.46 -0.14
v 0.94 0.46 -0.16
v 1.04 0.46 -0.16
v 0.94 0.46 -0.18
v 0.96 0.46 -0.18
v 1.02 0.46 -0.18
v 1.04 0.46 -0.18
v 0.92 0.46 -0.2
v 0.94 0.46 -0.2
v 0.96 0.46 -0.2
v 0.98 0.46 -0.2
v 1 0.46 -0.2
v 1.02 0.46 -0.2
v 1.04 0.46 -0.2
v 1.06 0.46 -0.2
v 0.94 0.46 -0.22
v 0.96 0.46 -0.22
v 1.02 0.46 -0.22
v 1.04 0.46 -0.22
v 0.96 0.48 -0.1
v 0.98 0.48 -0.1
v 1 0.48 -0.1
v 1.02 0.48 -0.1
v 0.94 0.48 -0.12
v 0.96 0.48 -0.12
v 0.98 0.48 -0.12
v 1 0.48 -0.12
v 1.02 0.48 -0.12
v 1.04 0.48 -0.12
v 0.94 0.48 -0.14
v 0.96 0.48 -0.14
v 1.02 0.48 -0.14
v 1.04 0.48 -0.14
v 0.94 0.48 -0.16
v 0.96 0.48 -0.16
v 1.02 0.48 -0.16
v 1.04 0.48 -0.16
v 0.94 0.48 -0.18
v 0.96 0.48 -0.18
v 0.98 0.48 -0.18
v 1 0.48 -0.18
v 1.02 0.48 -0.18
v 1.04 0.48 -0.18
v 0.96 0.48 -0.2
v 0.98 0.48 -0.2
v 1 0.48 -0.2
v 1.02 0.48 -0.2
v 0.9 0.5 0.04
v 0.92 0.5 0.04
v 0.9 0.5 0.02
v 0.92 0.5 0.02
v 0.98 0.5 -0.12
v 1 0.5 -0.12
v 0.96 0.5 -0.14
v 0.98 0.5 -0.14
v 1 0.5 -0.14
v 1.02 0.5 -0.14
v 0.96 0.5 -0.16
v 0.98 0.5 -0.16
v 1 0.5 -0.16
v 1.02 0.5 -0.16
v 0.98 0.5 -0.18
v 1 0.5 -0.18
v 0.92 0.54 0.04
v 0.94 0.54 0.04
v 0.94 0.54 -0.08
v 1 0.54 -0.08
v 0.92 0.54 -0.1
v 0.98 0.54 -0.1
v 1 0.54 -0.1
v 0.96 0.54 -0.12
v 0.98 0.54 -0.12
v 1 0.54 -0.12
v 1.02 0.54 -0.12
v 0.96 0.54 -0.14
v 0.98 0.54 -0.14
v 1 0.54 -0.14
v 1.02 0.54 -0.14
v 0.96 0.54 -0.16
v 0.98 0.54 -0.16
v 1 0.54 -0.16
v 1.02 0.54 -0.16
v 0.96 0.54 -0.18
v 0.98 0.54 -0.18
v 1 0.54 -0.18
v 1.02 0.54 -0.18
v 0.98 0.56 -0.1
v 1 0.56 -0.1
v 0.98 0.56 -0.16
v 1 0.56 -0.16

# faces
f 3/4/1 2/4/1 1/4/1
f 4/4/1 2/4/1 3/4/1
f 7/3/1 6/3/1 5/3/1
f 8/3/1 6/3/1 7/3/1
f 11/4/1 10/4/1 9/4/1
f 13/4/1 11/4/1 9/4/1
f 13/4/1 12/4/1 11/4/1
f 14/4/1 12/4/1 13/4/1
f 18/2/1 16/2/1 15/2/1
f 19/2/1 16/2/1 18/2/1
f 21/2/1 18/2/1 17/2/1
f 22/2/1 18/2/1 21/2/1
f 27/2/1 20/2/1 19/2/1
f 28/2/1 20/2/1 27/2/1
f 29/2/1 24/2/1 23/2/1
f 30/3/1 25/3/1 24/3/1
f 30/2/1 24/2/1 29/2/1
f 31/2/1 26/2/1 25/2/1
f 31/3/1 25/3/1 30/3/1
f 32/2/1 26/2/1 31/2/1
f 37/2/1 34/2/1 33/2/1
f 38/2/1 34/2/1 37/2/1
f 41/2/1 36/2/1 35/2/1
f 42/2/1 36/2/1 41/2/1
f 43/3/1 40/3/1 39/3/1
f 43/3/1 41/3/1 40/3/1
f 43/3/1 39/3/1 38/3/1
f 44/3/1 41/3/1 43/3/1
f 45/3/1 43/3/1 38/3/1
f 46/3/1 43/3/1 45/3/1
f 47/3/1 41/3/1 44/3/1
f 48/3/1 41/3/1 47/3/1
f 49/2/1 46/2/1 45/2/1
f 50/2/1 46/2/1 49/2/1
f 51/2/1 48/2/1 47/2/1
f 52/2/1 48/2/1 51/2/1
f 57/4/1 54/4/1 53/4/1
f 58/4/1 54/4/1 57/4/1
f 59/4/1 56/4/1 55/4/1
f 60/4/1 56/4/1 59/4/1
f 61/4/1 58/4/1 57/4/1
f 62/4/1 58/4/1 61/4/1
f 63/4/1 60/4/1 59/4/1
f 63/4/1 61/4/1 60/4/1
f 63/4/1 62/4/1 61/4/1
f 64/4/1 62/4/1 63/4/1
f 69/3/1 66/3/1 65/3/1
f 70/3/1 66/3/1 69/3/1
f 71/3/1 68/3/1 67/3/1
f 72/3/1 68/3/1 71/3/1
f 73/4/2 74/4/2 75/4/2
f 73/4/2 75/4/2 77/4/2
f 75/4/2 76/4/2 77/4/2
f 77/4/2 76/4/2 78/4/2
f 79/3/2 80/3/2 83/3/2
f 83/3/2 80/3/2 84/3/2
f 81/3/2 82/3/2 85/3/2
f 85/3/2 82/3/2 86/3/2
f 87/4/2 88/4/2 91/4/2
f 91/4/2 88/4/2 92/4/2
f 89/4/2 90/4/2 93/4/2
f 93/4/2 90/4/2 94/4/2
f 94/4/2 90/4/2 95/4/2
f 96/4/2 97/4/2 98/4/2
f 95/4/2 96/4/2 98/4/2
f 94/4/2 95/4/2 98/4/2
f 98/4/2 97/4/2 99/4/2
f 100/2/2 101/2/2 104/2/2
f 104/2/2 101/2/2 105/2/2
f 102/2/2 103/2/2 108/2/2
f 108/2/2 103/2/2 109/2/2
f 106/3/2 107/3/2 110/3/2
f 107/3/2 108/3/2 110/3/2
f 105/3/2 106/3/2 110/3/2
f 110/3/2 108/3/2 111/3/2
f 105/3/2 110/3/2 112/3/2
f 112/3/2 110/3/2 113/3/2
f 111/3/2 108/3/2 114/3/2
f 114/3/2 108/3/2 115/3/2
f 112/2/2 113/2/2 116/2/2
f 113/3/2 114/3/2 117/3/2
f 116/2/2 113/2/2 117/2/2
f 114/2/2 115/2/2 118/2/2
f 117/3/2 114/3/2 118/3/2
f 118/2/2 115/2/2 119/2/2
f 120/2/2 121/2/2 123/2/2
f 123/2/2 121/2/2 124/2/2
f 122/2/2 123/2/2 126/2/2
f 126/2/2 123/2/2 127/2/2
f 124/2/2 125/2/2 132/2/2
f 132/2/2 125/2/2 133/2/2
f 128/2/2 129/2/2 134/2/2
f 129/3/2 130/3/2 135/3/2
f 134/2/2 129/2/2 135/2/2
f 130/2/2 131/2/2 136/2/2
f 135/3/2 130/3/2 136/3/2
f 136/2/2 131/2/2 137/2/2
f 138/3/2 139/3/2 140/3/2
f 140/3/2 139/3/2 141/3/2
f 138/3/2 140/3/2 142/3/2
f 140/1/2 141/1/2 142/1/2
f 141/3/2 139/3/2 143/3/2
f 142/1/2 141/1/2 143/1/2
f 138/3/2 142/3/2 144/3/2
f 142/3/2 143/3/2 144/3/2
f 143/3/2 139/3/2 145/3/2
f 144/3/2 143/3/2 145/3/2
f 148/4/3 147/4/3 146/4/3
f 150/4/3 148/4/3 146/4/3
f 150/4/3 149/4/3 148/4/3
f 151/4/3 149/4/3 150/4/3
f 156/2/3 153/2/3 152/2/3
f 157/2/3 153/2/3 156/2/3
f 158/4/3 155/4/3 154/4/3
f 159/4/3 155/4/3 158/4/3
f 160/3/3 157/3/3 156/3/3
f 161/3/3 157/3/3 160/3/3
f 162/2/3 161/2/3 160/2/3
f 163/2/3 161/2/3 162/2/3
f 167/3/3 165/3/3 164/3/3
f 168/3/3 165/3/3 167/3/3
f 169/2/3 167/2/3 166/2/3
f 172/2/3 171/2/3 170/2/3
f 173/2/3 171/2/3 172/2/3
f 176/3/3 173/3/3 172/3/3
f 177/3/3 173/3/3 176/3/3
f 178/4/3 175/4/3 174/4/3
f 179/4/3 175/4/3 178/4/3
f 180/2/3 169/2/3 166/2/3
f 181/2/3 177/2/3 176/2/3
f 182/2/3 177/2/3 181/2/3
f 183/2/3 180/2/3 166/2/3
f 184/2/3 180/2/3 183/2/3
f 186/3/3 185/3/3 184/3/3
f 187/3/3 185/3/3 186/3/3
f 190/2/3 189/2/3 188/2/3
f 191/2/3 189/2/3 190/2/3
f 194/3/3 192/3/3 191/3/3
f 195/3/3 192/3/3 194/3/3
f 196/2/3 193/2/3 192/2/3
f 196/3/3 192/3/3 195/3/3
f 197/2/3 193/2/3 196/2/3
f 198/3/3 195/3/3 194/3/3
f 199/3/3 195/3/3 198/3/3
f 203/3/3 199/3/3 198/3/3
f 203/3/3 200/3/3 199/3/3
f 204/2/3 201/2/3 200/2/3
f 204/3/3 200/3/3 203/3/3
f 205/2/3 201/2/3 204/2/3
f 206/2/3 203/2/3 202/2/3
f 207/2/3 203/2/3 206/2/3
f 210/4/3 209/4/3 208/4/3
f 211/4/3 209/4/3 210/4/3
f 215/3/3 213/3/3 212/3/3
f 216/2/3 214/2/3 213/2/3
f 216/3/3 213/3/3 215/3/3
f 217/2/3 214/2/3 216/2/3
f 220/3/3 219/3/3 218/3/3
f 221/3/3 219/3/3 220/3/3
f 222/4/4 223/4/4 224/4/4
f 222/4/4 224/4/4 226/4/4
f 224/4/4 225/4/4 226/4/4
f 226/4/4 225/4/4 227/4/4
f 228/4/4 229/4/4 230/4/4
f 230/4/4 229/4/4 231/4/4
f 232/3/4 233/3/4 235/3/4
f 233/2/4 234/2/4 236/2/4
f 235/3/4 233/3/4 236/3/4
f 236/2/4 234/2/4 237/2/4
f 238/3/4 239/3/4 240/3/4
f 240/3/4 239/3/4 241/3/4
f 242/4/4 243/4/4 246/4/4
f 246/4/4 243/4/4 247/4/4
f 244/4/4 245/4/4 248/4/4
f 248/4/4 245/4/4 249/4/4
f 250/2/4 251/2/4 252/2/4
f 252/2/4 251/2/4 253/2/4
f 253/3/4 254/3/4 256/3/4
f 256/3/4 254/3/4 257/3/4
f 254/2/4 255/2/4 258/2/4
f 257/3/4 254/3/4 258/3/4
f 258/2/4 255/2/4 259/2/4
f 256/3/4 257/3/4 260/3/4
f 260/3/4 257/3/4 261/3/4
f 258/3/4 259/3/4 262/3/4
f 262/3/4 259/3/4 263/3/4
f 260/3/4 261/3/4 265/3/4
f 261/3/4 262/3/4 265/3/4
f 262/2/4 263/2/4 266/2/4
f 265/3/4 262/3/4 266/3/4
f 266/2/4 263/2/4 267/2/4
f 264/2/4 265/2/4 268/2/4
f 268/2/4 265/2/4 269/2/4
f 270/3/4 271/3/4 273/3/4
f 273/3/4 271/3/4 274/3/4
f 272/2/4 273/2/4 275/2/4
f 276/2/4 277/2/4 278/2/4
f 278/2/4 277/2/4 279/2/4
f 278/3/4 279/3/4 280/3/4
f 280/3/4 279/3/4 281/3/4
f 272/2/4 275/2/4 282/2/4
f 280/2/4 281/2/4 283/2/4
f 283/2/4 281/2/4 284/2/4
f 272/2/4 282/2/4 285/2/4
f 285/2/4 282/2/4 286/2/4
f 286/3/4 287/3/4 288/3/4
f 288/3/4 287/3/4 289/3/4
f 290/2/4 291/2/4 292/2/4
f 292/2/4 291/2/4 293/2/4
f 292/3/4 293/3/4 294/3/4
f 294/3/4 293/3/4 295/3/4
f 294/2/4 295/2/4 296/2/4
f 296/2/4 295/2/4 297/2/4
f 300/2/5 299/2/5 298/2/5
f 301/2/5 299/2/5 300/2/5
f 302/2/5 300/2/5 298/2/5
f 302/3/5 301/3/5 300/3/5
f 303/2/5 299/2/5 301/2/5
f 303/3/5 301/3/5 302/3/5
f 304/2/5 302/2/5 298/2/5
f 304/2/5 303/2/5 302/2/5
f 305/2/5 299/2/5 303/2/5
f 305/2/5 303/2/5 304/2/5
f 311/2/5 307/2/5 306/2/5
f 312/3/5 308/3/5 307/3/5
f 312/2/5 307/2/5 311/2/5
f 313/2/5 309/2/5 308/2/5
f 313/3/5 308/3/5 312/3/5
f 314/2/5 309/2/5 313/2/5
f 316/3/5 311/3/5 310/3/5
f 317/3/5 311/3/5 316/3/5
f 320/3/5 315/3/5 314/3/5
f 321/3/5 315/3/5 320/3/5
f 322/2/5 318/2/5 317/2/5
f 323/3/5 319/3/5 318/3/5
f 323/2/5 318/2/5 322/2/5
f 324/2/5 320/2/5 319/2/5
f 324/3/5 319/3/5 323/3/5
f 325/2/5 320/2/5 324/2/5
f 328/4/5 327/4/5 326/4/5
f 329/4/5 327/4/5 328/4/5
f 332/4/5 331/4/5 330/4/5
f 334/4/5 332/4/5 330/4/5
f 334/4/5 333/4/5 332/4/5
f 335/4/5 333/4/5 334/4/5
f 336/4/5 333/4/5 335/4/5
f 337/4/5 333/4/5 336/4/5
f 338/3/5 337/3/5 336/3/5
f 339/3/5 337/3/5 338/3/5
f 342/3/5 340/3/5 339/3/5
f 343/3/5 340/3/5 342/3/5
f 344/3/5 342/3/5 341/3/5
f 345/3/5 342/3/5 344/3/5
f 346/2/6 347/2/6 351/2/6
f 347/3/6 348/3/6 352/3/6
f 351/2/6 347/2/6 352/2/6
f 352/3/6 348/3/6 353/3/6
f 353/3/6 348/3/6 354/3/6
f 348/2/6 349/2/6 355/2/6
f 354/3/6 348/3/6 355/3/6
f 355/2/6 349/2/6 356/2/6
f 350/3/6 351/3/6 358/3/6
f 351/3/6 352/3/6 358/3/6
f 358/3/6 352/3/6 359/3/6
f 356/3/6 357/3/6 360/3/6
f 355/3/6 356/3/6 360/3/6
f 360/3/6 357/3/6 361/3/6
f 350/3/6 358/3/6 362/3/6
f 361/3/6 357/3/6 363/3/6
f 350/3/6 362/3/6 364/3/6
f 363/3/6 357/3/6 365/3/6
f 350/3/6 364/3/6 366/3/6
f 365/3/6 357/3/6 369/3/6
f 366/3/6 367/3/6 370/3/6
f 350/3/6 366/3/6 370/3/6
f 370/3/6 367/3/6 371/3/6
f 371/3/6 367/3/6 372/3/6
f 368/3/6 369/3/6 375/3/6
f 369/3/6 357/3/6 376/3/6
f 375/3/6 369/3/6 376/3/6
f 376/3/6 357/3/6 377/3/6
f 371/2/6 372/2/6 378/2/6
f 373/3/6 374/3/6 379/3/6
f 378/2/6 372/2/6 379/2/6
f 374/3/6 375/3/6 379/3/6
f 372/3/6 373/3/6 379/3/6
f 375/2/6 376/2/6 380/2/6
f 379/3/6 375/3/6 380/3/6
f 380/2/6 376/2/6 381/2/6
f 382/2/6 383/2/6 387/2/6
f 383/3/6 384/3/6 388/3/6
f 387/2/6 383/2/6 388/2/6
f 384/2/6 385/2/6 389/2/6
f 388/3/6 384/3/6 389/3/6
f 389/2/6 385/2/6 390/2/6
f 386/2/6 387/2/6 392/2/6
f 392/2/6 387/2/6 393/2/6
f 390/2/6 391/2/6 394/2/6
f 394/2/6 391/2/6 395/2/6
f 392/3/6 393/3/6 396/3/6
f 396/3/6 393/3/6 397/3/6
f 394/3/6 395/3/6 398/3/6
f 398/3/6 395/3/6 399/3/6
f 396/2/6 397/2/6 400/2/6
f 400/2/6 397/2/6 401/2/6
f 398/2/6 399/2/6 404/2/6
f 404/2/6 399/2/6 405/2/6
f 401/2/6 402/2/6 406/2/6
f 402/3/6 403/3/6 407/3/6
f 406/2/6 402/2/6 407/2/6
f 403/2/6 404/2/6 408/2/6
f 407/3/6 403/3/6 408/3/6
f 408/2/6 404/2/6 409/2/6
f 410/4/6 411/4/6 412/4/6
f 412/4/6 411/4/6 413/4/6
f 414/3/6 415/3/6 417/3/6
f 417/3/6 415/3/6 418/3/6
f 416/3/6 417/3/6 420/3/6
f 420/3/6 417/3/6 421/3/6
f 418/3/6 419/3/6 422/3/6
f 422/3/6 419/3/6 423/3/6
f 421/3/6 422/3/6 424/3/6
f 424/3/6 422/3/6 425/3/6
f 426/4/6 427/4/6 428/4/6
f 426/4/6 428/4/6 430/4/6
f 428/4/6 429/4/6 430/4/6
f 430/4/6 429/4/6 431/4/6
f 431/4/6 429/4/6 432/4/6
f 433/2/6 434/2/6 437/2/6
f 437/2/6 434/2/6 438/2/6
f 435/2/6 436/2/6 439/2/6
f 439/2/6 436/2/6 440/2/6
f 439/3/6 440/3/6 443/3/6
f 443/3/6 440/3/6 444/3/6
f 441/2/6 442/2/6 445/2/6
f 442/3/6 443/3/6 446/3/6
f 445/2/6 442/2/6 446/2/6
f 443/2/6 444/2/6 447/2/6
f 446/3/6 443/3/6 447/3/6
f 447/2/6 444/2/6 448/2/6
f 449/4/6 450/4/6 451/4/6
f 451/4/6 450/4/6 452/4/6
